<svg width="136" height="137" viewBox="0 0 136 137" fill="none" xmlns="http://www.w3.org/2000/svg">
<path d="M11.0173 5.83367C11.0173 8.59439 8.6358 10.9787 5.75293 11.1041C2.9954 11.1041 0.613906 8.71988 0.488563 5.83367C0.488563 3.07295 2.87006 0.688694 5.75293 0.563204C8.6358 0.688691 11.0173 3.07295 11.0173 5.83367ZM36.9631 0.688701C34.2056 0.688701 31.8241 3.07295 31.6988 5.95916C31.6988 8.71989 34.0803 11.1041 36.9631 11.2296C39.7207 11.2296 42.1022 8.84538 42.2275 5.95917C42.2275 2.94747 39.9713 0.688698 36.9631 0.688701ZM68.2987 0.68869C65.5412 0.688695 63.1596 3.07296 63.0343 5.95916C63.0343 8.71988 65.4158 11.1041 68.2987 11.2296C71.0562 11.2296 73.4377 8.84538 73.5631 5.95916C73.4377 3.07295 71.0562 0.688695 68.2987 0.68869ZM99.3835 0.688706C96.626 0.688701 94.2445 3.07295 94.1192 5.95917C94.1192 8.71989 96.5007 11.1041 99.3835 11.2296C102.141 11.2296 104.523 8.84538 104.648 5.95918C104.648 2.94747 102.266 0.56321 99.3835 0.688706ZM130.594 0.563226C127.836 0.563232 125.455 2.94748 125.329 5.83369C125.329 8.59442 127.711 10.9787 130.594 11.1042C133.351 11.1042 135.733 8.7199 135.858 5.8337C135.733 2.94749 133.477 0.688717 130.594 0.563226ZM5.87827 31.8096C3.12074 31.8096 0.739245 34.1938 0.613899 37.08C0.613899 39.8408 2.9954 42.225 5.87827 42.3505C8.6358 42.3505 11.0173 39.9663 11.1426 37.08C11.0173 34.1938 8.76114 31.9351 5.87827 31.8096ZM37.0885 31.9351C34.331 31.9351 31.9494 34.3193 31.8241 37.2055C31.8241 39.9663 34.2056 42.3505 37.0885 42.476C39.846 42.476 42.2275 40.0917 42.3528 37.2055C42.2275 34.3193 39.846 31.9351 37.0885 31.9351ZM68.1733 31.9351C65.4158 31.9351 63.0343 34.3193 62.909 37.2055C62.909 39.9663 65.2905 42.3505 68.1733 42.476C70.9309 42.476 73.3124 40.0917 73.4377 37.2055C73.4377 34.1938 71.0562 31.8096 68.1733 31.9351ZM99.3836 31.8096C96.626 31.8096 94.2445 34.1938 94.1192 37.0801C94.1192 39.8408 96.5007 42.225 99.3835 42.3505C102.141 42.3505 104.523 39.9663 104.648 37.08C104.523 34.1938 102.266 31.9351 99.3836 31.8096ZM130.594 31.9351C127.836 31.9351 125.455 34.3193 125.329 37.2055C125.329 39.9663 127.711 42.3505 130.594 42.476C133.351 42.476 135.733 40.0918 135.858 37.2055C135.858 34.1938 133.477 31.8096 130.594 31.9351ZM5.87827 63.1814C3.12074 63.1814 0.739245 65.5657 0.613902 68.4519C0.613902 71.2126 2.9954 73.5969 5.87827 73.7224C8.6358 73.7224 11.0173 71.3381 11.1426 68.4519C11.1426 65.4402 8.76114 63.0559 5.87827 63.1814ZM37.0885 63.0559C34.3309 63.0559 31.9494 65.4402 31.8241 68.3264C31.8241 71.0871 34.2056 73.4714 37.0885 73.5969C39.846 73.5969 42.2275 71.2126 42.3528 68.3264C42.2275 65.4402 39.846 63.0559 37.0885 63.0559ZM68.1733 63.0559C65.4158 63.0559 63.0343 65.4402 62.909 68.3264C62.909 71.0871 65.2905 73.4714 68.1733 73.5969C70.9309 73.5969 73.3124 71.2126 73.4377 68.3264C73.3124 65.4402 71.0562 63.1814 68.1733 63.0559ZM99.3835 63.1814C96.626 63.1814 94.2445 65.5657 94.1192 68.4519C94.1192 71.2126 96.5007 73.5969 99.3835 73.7224C102.141 73.7224 104.523 71.3381 104.648 68.4519C104.648 65.4402 102.266 63.056 99.3835 63.1814ZM130.594 63.0559C127.836 63.0559 125.455 65.4402 125.329 68.3264C125.329 71.0871 127.711 73.4714 130.594 73.5969C133.351 73.5969 135.733 71.2126 135.858 68.3264C135.733 65.4402 133.477 63.1814 130.594 63.0559ZM5.87827 94.3023C3.12074 94.3023 0.739237 96.6866 0.613894 99.5728C0.613894 102.334 2.99539 104.718 5.87826 104.843C8.63579 104.843 11.0173 102.459 11.1426 99.5728C11.0173 96.6866 8.6358 94.3023 5.87827 94.3023ZM36.9631 94.3023C34.2056 94.3023 31.8241 96.6866 31.6988 99.5728C31.6988 102.334 34.0803 104.718 36.9631 104.843C39.7207 104.843 42.1022 102.459 42.2275 99.5728C42.2275 96.5611 39.9713 94.3023 36.9631 94.3023ZM68.2987 94.3023C65.5412 94.3023 63.1597 96.6866 63.0343 99.5728C63.0343 102.334 65.4158 104.718 68.2987 104.843C71.0562 104.843 73.4377 102.459 73.563 99.5728C73.4377 96.6866 71.0562 94.3023 68.2987 94.3023ZM99.3835 94.3023C96.626 94.3023 94.2445 96.6866 94.1192 99.5728C94.1192 102.333 96.5007 104.718 99.3835 104.843C102.141 104.843 104.523 102.459 104.648 99.5728C104.523 96.6866 102.266 94.4278 99.3835 94.3023ZM130.594 94.4278C127.836 94.4278 125.455 96.812 125.329 99.6983C125.329 102.459 127.711 104.843 130.594 104.969C133.351 104.969 135.733 102.584 135.858 99.6983C135.858 96.6866 133.477 94.3023 130.594 94.4278ZM5.75294 125.549C2.99541 125.549 0.613906 127.933 0.488563 130.819C0.488563 133.58 2.87006 135.964 5.75293 136.09C8.51046 136.09 10.892 133.705 11.0173 130.819C11.0173 127.807 8.76115 125.549 5.75294 125.549ZM37.0885 125.549C34.331 125.549 31.9494 127.933 31.8241 130.819C31.8241 133.58 34.2056 135.964 37.0885 136.09C39.846 136.09 42.2275 133.705 42.3528 130.819C42.2275 127.933 39.846 125.549 37.0885 125.549ZM68.1733 125.549C65.4158 125.549 63.0343 127.933 62.909 130.819C62.909 133.58 65.2905 135.964 68.1733 136.09C70.9309 136.09 73.3124 133.705 73.4377 130.819C73.4377 127.807 71.1815 125.549 68.1733 125.549ZM99.5089 125.549C96.7513 125.549 94.3698 127.933 94.2445 130.819C94.2445 133.58 96.626 135.964 99.5089 136.09C102.266 136.09 104.648 133.705 104.773 130.819C104.648 127.933 102.266 125.549 99.5089 125.549ZM130.594 125.549C127.836 125.549 125.455 127.933 125.329 130.819C125.329 133.58 127.711 135.964 130.594 136.09C133.351 136.09 135.733 133.705 135.858 130.819C135.733 127.933 133.351 125.549 130.594 125.549Z" fill="#EE885E"/>
</svg>
