<svg width="24" height="24" viewBox="0 0 24 24" fill="none" xmlns="http://www.w3.org/2000/svg">
<path fill-rule="evenodd" clip-rule="evenodd" d="M19.4286 4.57143C19.6537 4.79653 19.8324 5.06378 19.9542 5.35792C20.0761 5.65206 20.1388 5.96733 20.1388 6.28571C20.1388 6.6041 20.0761 6.91937 19.9542 7.21351C19.8324 7.50765 19.6537 7.7749 19.4286 8L8.57143 18.8571L4 20L5.14286 15.4926L16.0046 4.576C16.2289 4.35054 16.4955 4.17154 16.7891 4.04926C17.0827 3.92698 17.3976 3.86382 17.7156 3.8634C18.0337 3.86297 18.3487 3.92529 18.6426 4.04679C18.9366 4.16828 19.2036 4.34657 19.4286 4.57143V4.57143Z" stroke="white" stroke-linecap="round" stroke-linejoin="round"/>
<path d="M10.8574 20H20.0003" stroke="white" stroke-linecap="round" stroke-linejoin="round"/>
<path d="M17.7139 7.42857L18.8567 8.57143" stroke="white" stroke-linecap="round" stroke-linejoin="round"/>
</svg>
