<svg width="24" height="24" viewBox="0 0 24 24" fill="none" xmlns="http://www.w3.org/2000/svg">
<path d="M11.9991 7.377C10.7728 7.377 9.59663 7.86417 8.72946 8.73134C7.86229 9.59851 7.37512 10.7746 7.37512 12.001C7.37512 13.2274 7.86229 14.4035 8.72946 15.2707C9.59663 16.1378 10.7728 16.625 11.9991 16.625C13.2255 16.625 14.4016 16.1378 15.2688 15.2707C16.136 14.4035 16.6231 13.2274 16.6231 12.001C16.6231 10.7746 16.136 9.59851 15.2688 8.73134C14.4016 7.86417 13.2255 7.377 11.9991 7.377ZM11.9991 15.004C11.2024 15.004 10.4383 14.6875 9.87497 14.1241C9.31161 13.5608 8.99512 12.7967 8.99512 12C8.99512 11.2033 9.31161 10.4392 9.87497 9.87585C10.4383 9.31249 11.2024 8.996 11.9991 8.996C12.7958 8.996 13.5599 9.31249 14.1233 9.87585C14.6866 10.4392 15.0031 11.2033 15.0031 12C15.0031 12.7967 14.6866 13.5608 14.1233 14.1241C13.5599 14.6875 12.7958 15.004 11.9991 15.004Z" fill="white"/>
<path d="M16.8061 8.285C17.4015 8.285 17.8841 7.80236 17.8841 7.207C17.8841 6.61163 17.4015 6.129 16.8061 6.129C16.2108 6.129 15.7281 6.61163 15.7281 7.207C15.7281 7.80236 16.2108 8.285 16.8061 8.285Z" fill="white"/>
<path d="M20.5331 6.111C20.3016 5.51318 19.9479 4.97028 19.4945 4.51706C19.0411 4.06384 18.498 3.71027 17.9001 3.479C17.2005 3.21636 16.4613 3.07434 15.7141 3.059C14.7511 3.017 14.4461 3.005 12.0041 3.005C9.56212 3.005 9.24912 3.005 8.29412 3.059C7.54751 3.07356 6.80888 3.2156 6.11012 3.479C5.51206 3.71 4.96889 4.06347 4.51546 4.51673C4.06203 4.96999 3.70835 5.51302 3.47712 6.111C3.21443 6.81061 3.07274 7.54984 3.05812 8.297C3.01512 9.259 3.00212 9.564 3.00212 12.007C3.00212 14.449 3.00212 14.76 3.05812 15.717C3.07312 16.465 3.21412 17.203 3.47712 17.904C3.709 18.5018 4.06302 19.0446 4.51656 19.4978C4.9701 19.951 5.51319 20.3046 6.11112 20.536C6.80856 20.8092 7.54749 20.9614 8.29612 20.986C9.25912 21.028 9.56412 21.041 12.0061 21.041C14.4481 21.041 14.7611 21.041 15.7161 20.986C16.4632 20.9708 17.2024 20.8291 17.9021 20.567C18.4999 20.3352 19.0427 19.9813 19.4961 19.528C19.9494 19.0746 20.3033 18.5318 20.5351 17.934C20.7981 17.234 20.9391 16.496 20.9541 15.748C20.9971 14.786 21.0101 14.481 21.0101 12.038C21.0101 9.595 21.0101 9.285 20.9541 8.328C20.9425 7.57027 20.8001 6.82025 20.5331 6.111ZM19.3151 15.643C19.3087 16.2193 19.2035 16.7902 19.0041 17.331C18.8539 17.7199 18.624 18.073 18.3292 18.3677C18.0343 18.6624 17.6811 18.8921 17.2921 19.042C16.7573 19.2404 16.1925 19.3456 15.6221 19.353C14.6721 19.397 14.4041 19.408 11.9681 19.408C9.53012 19.408 9.28112 19.408 8.31312 19.353C7.74305 19.346 7.17845 19.2408 6.64412 19.042C6.25381 18.893 5.89912 18.6637 5.60301 18.369C5.3069 18.0742 5.07596 17.7206 4.92512 17.331C4.72857 16.7961 4.62343 16.2318 4.61412 15.662C4.57112 14.712 4.56112 14.444 4.56112 12.008C4.56112 9.571 4.56112 9.322 4.61412 8.353C4.62059 7.77702 4.72578 7.20642 4.92512 6.666C5.23012 5.877 5.85512 5.256 6.64412 4.954C7.17871 4.75614 7.74315 4.65096 8.31312 4.643C9.26412 4.6 9.53112 4.588 11.9681 4.588C14.4051 4.588 14.6551 4.588 15.6221 4.643C16.1925 4.64986 16.7575 4.75507 17.2921 4.954C17.6811 5.10427 18.0343 5.3342 18.3291 5.62903C18.6239 5.92386 18.8538 6.27707 19.0041 6.666C19.2007 7.20095 19.3058 7.76516 19.3151 8.335C19.3581 9.286 19.3691 9.553 19.3691 11.99C19.3691 14.426 19.3691 14.688 19.3261 15.644H19.3151V15.643Z" fill="white"/>
</svg>
