<svg width="24" height="24" viewBox="0 0 24 24" fill="none" xmlns="http://www.w3.org/2000/svg">
<path d="M19.6331 7.997C19.6461 8.172 19.6461 8.346 19.6461 8.52C19.6461 13.845 15.5931 19.981 8.18612 19.981C5.90412 19.981 3.78412 19.32 2.00012 18.172C2.32412 18.209 2.63612 18.222 2.97312 18.222C4.78611 18.2264 6.54777 17.6201 7.97412 16.501C7.13354 16.4858 6.3187 16.2085 5.64336 15.7077C4.96802 15.207 4.46591 14.5079 4.20712 13.708C4.45612 13.745 4.70612 13.77 4.96812 13.77C5.32912 13.77 5.69212 13.72 6.02912 13.633C5.11688 13.4488 4.2966 12.9544 3.70774 12.2337C3.11889 11.513 2.79782 10.6106 2.79912 9.68V9.63C3.33612 9.929 3.95912 10.116 4.61912 10.141C4.06621 9.77359 3.61284 9.27502 3.29946 8.68979C2.98608 8.10456 2.82244 7.45086 2.82312 6.787C2.82312 6.039 3.02212 5.353 3.37112 4.755C4.38326 6.00002 5.64563 7.01856 7.07646 7.74466C8.50729 8.47076 10.0747 8.88822 11.6771 8.97C11.6151 8.67 11.5771 8.359 11.5771 8.047C11.5769 7.51796 11.6809 6.99406 11.8832 6.50524C12.0855 6.01642 12.3822 5.57228 12.7563 5.19819C13.1304 4.8241 13.5745 4.52741 14.0634 4.32508C14.5522 4.12275 15.0761 4.01874 15.6051 4.019C16.7651 4.019 17.8121 4.505 18.5481 5.291C19.4499 5.11662 20.3147 4.78742 21.1041 4.318C20.8035 5.24882 20.1739 6.03811 19.3331 6.538C20.1329 6.44678 20.9146 6.23645 21.6521 5.914C21.1013 6.7171 20.4186 7.42135 19.6331 7.997Z" fill="white"/>
</svg>
